<?xml version="1.0" encoding="UTF-8"?><svg id="a" xmlns="http://www.w3.org/2000/svg" viewBox="0 0 100 100"><defs><style>.b{fill:#fff;}.c{fill:#fff;}</style></defs><path class="c" d="M87.86,0H12.14C5.43,0,0,5.43,0,12.14V87.86C0,94.57,5.43,100,12.14,100H87.86c6.7,0,12.14-5.43,12.14-12.14V12.14c0-6.7-5.43-12.14-12.14-12.14ZM55.08,70.51l-3.66-9.63h-14.36l-3.66,9.63h-7.4l15.03-37.89h6.35l15.05,37.89h-7.35Zm18.74,0h-6.73v-27.44h6.73v27.44Zm.19-33.77h-7.09v-7.25h7.09v7.25Z"/><path class="b" d="M44.16,41.74c-1.33,3.95-2.54,7.25-3.59,9.92l-1.28,3.42h9.89l-1.28-3.42c-1.05-2.69-2.26-5.99-3.61-9.92h-.12Z"/></svg>
