<?xml version="1.0" encoding="UTF-8"?><svg id="a" xmlns="http://www.w3.org/2000/svg" viewBox="0 0 100 100"><defs><style>.b{fill:#fff;}</style></defs><path class="b" d="M94.01,.78c-.41-.45-.99-.7-1.6-.7H7.6c-.61,0-1.2,.25-1.6,.7-.42,.45-.62,1.05-.56,1.66l7.64,85.58c.08,.9,.7,1.64,1.57,1.9l34.75,9.92c.19,.06,.39,.08,.59,.08s.4-.03,.59-.08l34.78-9.92c.86-.25,1.48-1,1.57-1.9L94.56,2.44c.06-.61-.14-1.21-.56-1.66Zm-18.29,29.51H34.88l.98,11.05h38.88l-2.92,32.65-21.83,6.6-.21-.07-21.58-6.54-1.18-13.3h10.57l.46,5.16,12.07,2.53,11.84-2.53,1.26-13.97H26.23l-2.87-32.13h53.31l-.94,10.56Z"/></svg>