<?xml version="1.0" encoding="UTF-8"?><svg id="a" xmlns="http://www.w3.org/2000/svg" viewBox="0 0 100 100"><defs><style>.b{fill:#fff;}</style></defs><path class="b" d="M58.09,47.07c-.79,0-1.59,.16-2.46,.45-.85,.32-1.62,.87-2.33,1.62-.69,.77-1.3,1.83-1.75,3.18-.48,1.32-.71,3.04-.71,5.14,0,3.07,.58,5.48,1.77,7.2,1.19,1.72,2.94,2.59,5.22,2.62,.74,0,1.43-.11,2.12-.26,.64-.21,1.27-.48,1.85-.77,.61-.34,1.11-.69,1.56-1.06,.45-.37,.85-.74,1.16-1.11v-14.51c-.87-.71-1.88-1.3-2.97-1.8-1.09-.45-2.25-.69-3.47-.69Z"/><path class="b" d="M87.86,0H12.14C5.43,0,0,5.43,0,12.14V87.86c0,6.7,5.43,12.14,12.14,12.14H87.86c6.7,0,12.14-5.43,12.14-12.14V12.14C100,5.43,94.57,0,87.86,0ZM35.53,72.44h-7.76V30.26h7.76v42.18Zm29.89,0l-.29-3.26h-.13c-.45,.53-.98,1.03-1.59,1.56-.64,.48-1.32,.93-2.07,1.3s-1.56,.66-2.46,.87c-.9,.19-1.88,.29-2.91,.29-1.67,0-3.28-.26-4.79-.87-1.54-.58-2.89-1.48-4.1-2.73-1.22-1.22-2.17-2.83-2.91-4.82-.71-1.99-1.09-4.32-1.09-7.02s.37-5.06,1.11-7.15c.74-2.09,1.75-3.84,3.02-5.27,1.27-1.4,2.73-2.46,4.37-3.18,1.64-.69,3.34-1.06,5.11-1.06,.82,0,1.59,.08,2.36,.21,.71,.16,1.43,.37,2.07,.61,.66,.26,1.27,.53,1.83,.85,.58,.32,1.11,.66,1.59,.98h.05c-.03-.42-.03-1.01-.05-1.77v-15.2h7.49V63.36c0,2.04,.03,3.76,.05,5.22,.05,1.43,.08,2.75,.13,3.87h-6.78Z"/></svg>