<?xml version="1.0" encoding="UTF-8"?><svg id="a" xmlns="http://www.w3.org/2000/svg" viewBox="0 0 100 100"><defs><style>.b{fill:#fff;}</style></defs><path class="b" d="M94.14,.63c-.41-.45-.99-.71-1.61-.71H7.47c-.61,0-1.19,.26-1.61,.71-.41,.45-.62,1.06-.56,1.66l7.66,85.84c.08,.9,.71,1.65,1.57,1.9l34.86,9.96c.19,.05,.4,.08,.6,.08s.4-.03,.6-.08l34.89-9.96c.87-.25,1.49-1,1.57-1.9L94.7,2.29c.05-.61-.15-1.21-.56-1.66ZM45.65,76.13l-23.95-6.64v-10.77l15.24,4.23V19.52h8.71v56.61ZM79.73,28.23h-16.67v17.42l15.36-2.18-2.29,26.67-21.77,5.99v-10.02l14.7-4.04,.54-8.16-15.24,2.63V19.52h26.13l-.75,8.71Z"/></svg>