<?xml version="1.0" encoding="UTF-8"?><svg id="a" xmlns="http://www.w3.org/2000/svg" viewBox="0 0 100 100"><defs><style>.b{fill:#fff;}</style></defs><path class="b" d="M40.5,37.17c-.67-.24-1.47-.4-2.45-.5-.98-.12-2.16-.17-3.57-.17h-3.9v11.44c.4,.05,.9,.1,1.5,.14,.62,.02,1.26,.02,1.93,.02,1.85,0,3.42-.14,4.69-.45,1.26-.29,2.28-.71,3.04-1.26,.78-.52,1.33-1.19,1.66-1.95,.36-.76,.52-1.59,.52-2.5,0-1.12-.26-2.07-.76-2.9-.52-.81-1.4-1.43-2.66-1.88Z"/><path class="b" d="M87.86,0H12.14C5.43,0,0,5.43,0,12.14V87.86c0,6.7,5.43,12.14,12.14,12.14H87.86c6.7,0,12.14-5.43,12.14-12.14V12.14c0-6.7-5.43-12.14-12.14-12.14ZM49.99,47.02c-.76,1.47-1.88,2.71-3.33,3.73-1.45,1.02-3.21,1.81-5.33,2.35-2.09,.55-4.49,.81-7.21,.81-.62,0-1.24,0-1.86-.02-.59-.02-1.17-.05-1.69-.12v14.82h-6.97V30.72h10.94c1.83,0,3.45,.07,4.8,.24,1.38,.14,2.59,.38,3.66,.71,2.59,.78,4.59,2.05,5.99,3.81,1.4,1.71,2.09,3.92,2.09,6.61,0,1.83-.38,3.47-1.12,4.92Zm25.52,17.15c-.57,1.17-1.4,2.12-2.43,2.88-1.07,.76-2.31,1.33-3.78,1.69-1.45,.38-3.07,.57-4.83,.57s-3.28-.14-4.69-.4c-1.38-.29-2.54-.62-3.45-1.05v-5.4c1.47,.55,2.83,.9,4.09,1.09,1.24,.19,2.4,.29,3.5,.29,.81,0,1.59-.05,2.31-.17,.71-.14,1.33-.31,1.85-.59,.52-.26,.93-.59,1.24-1,.29-.4,.45-.88,.45-1.45s-.17-1.07-.5-1.45c-.33-.36-.76-.67-1.31-.93s-1.19-.48-1.88-.69c-.71-.17-1.45-.36-2.24-.55-.98-.26-1.93-.57-2.83-.93-.9-.36-1.71-.81-2.4-1.38-.69-.55-1.24-1.28-1.64-2.14s-.62-1.9-.62-3.14c0-1.55,.29-2.88,.83-4,.55-1.12,1.31-2.05,2.24-2.78s2.02-1.28,3.26-1.64c1.24-.36,2.54-.55,3.92-.55,1.69,0,3.26,.14,4.73,.4,1.47,.29,2.81,.64,4,1.07v5.45c-.62-.21-1.28-.4-1.97-.57-.69-.17-1.38-.33-2.09-.45-.71-.12-1.4-.24-2.12-.31-.69-.1-1.36-.12-1.97-.12-.81,0-1.47,.07-2.02,.21-.55,.14-.98,.36-1.33,.62-.33,.24-.57,.52-.74,.86-.14,.33-.21,.69-.21,1.05,0,.62,.17,1.12,.48,1.52,.33,.4,.81,.71,1.38,.95,.59,.26,1.21,.45,1.83,.62,.64,.17,1.28,.31,1.88,.48,.95,.21,1.88,.48,2.83,.81,.93,.33,1.78,.76,2.54,1.36,.76,.57,1.38,1.31,1.86,2.24,.48,.9,.71,2.07,.71,3.5,0,1.55-.29,2.9-.88,4.04Z"/></svg>