<?xml version="1.0" encoding="UTF-8"?><svg id="a" xmlns="http://www.w3.org/2000/svg" viewBox="0 0 100 100"><defs><style>.b{fill:#fff;}</style></defs><path class="b" d="M70.59,4.74c-1.68-.06-3.44,.24-5.2,.81-3.53,1.14-7.22,3.37-11.01,6.46-1.49,1.21-2.99,2.59-4.49,4.06-1.47-1.43-2.94-2.78-4.39-3.96-3.79-3.08-7.47-5.31-10.99-6.45-3.52-1.14-7.02-1.18-9.89,.48-2.87,1.66-4.59,4.71-5.37,8.32-.77,3.62-.69,7.92,.08,12.75,.27,1.67,.66,3.43,1.09,5.22-1.64,.5-3.24,1.02-4.72,1.6-4.46,1.74-8.16,3.83-10.85,6.31-2.69,2.48-4.43,5.5-4.43,8.8s1.74,6.32,4.43,8.8c2.69,2.48,6.38,4.57,10.85,6.32,1.58,.62,3.29,1.17,5.06,1.7-.64,2.38-1.15,4.68-1.5,6.87-.78,4.83-.86,9.13-.08,12.76,.77,3.63,2.49,6.69,5.38,8.36,2.89,1.67,6.41,1.63,9.93,.48,3.53-1.14,7.22-3.37,11.01-6.45,1.47-1.2,2.96-2.56,4.45-4.01,1.5,1.46,2.99,2.83,4.47,4.04,3.79,3.08,7.48,5.31,11,6.45,3.52,1.14,7.01,1.18,9.89-.48s4.59-4.71,5.37-8.32,.69-7.92-.09-12.75c-.35-2.19-.87-4.5-1.51-6.88,1.83-.54,3.59-1.11,5.22-1.75,4.46-1.74,8.16-3.83,10.85-6.32s4.43-5.49,4.43-8.8-1.74-6.32-4.43-8.8c-2.69-2.48-6.38-4.57-10.85-6.31-1.5-.59-3.12-1.12-4.79-1.62,.44-1.8,.83-3.57,1.1-5.26,.78-4.83,.86-9.14,.08-12.76-.77-3.63-2.5-6.69-5.39-8.35-1.44-.83-3.05-1.24-4.73-1.3Zm-.2,4.38c1.05,.03,1.95,.28,2.72,.72,1.54,.89,2.68,2.62,3.28,5.46,.61,2.85,.59,6.69-.13,11.15-.25,1.53-.6,3.14-1.01,4.8-4.41-1.06-9.23-1.85-14.38-2.31-2.58-3.58-5.24-6.84-7.92-9.73,1.42-1.38,2.82-2.67,4.2-3.79,3.5-2.85,6.82-4.79,9.59-5.69,1.38-.45,2.59-.64,3.65-.61Zm-40.89,.01c1.06-.03,2.27,.16,3.66,.61,2.78,.9,6.1,2.84,9.6,5.69,1.35,1.09,2.72,2.36,4.11,3.71-2.7,2.92-5.37,6.21-7.97,9.82-5.13,.47-9.94,1.27-14.32,2.33-.4-1.65-.75-3.26-1-4.78-.72-4.46-.73-8.31-.13-11.16,.61-2.85,1.75-4.59,3.31-5.49,.78-.45,1.68-.7,2.74-.73Zm20.45,13.18c1.75,1.91,3.51,4,5.25,6.25-1.71-.07-3.44-.11-5.2-.11s-3.56,.04-5.3,.12c1.74-2.25,3.5-4.34,5.25-6.25Zm.05,10.49c2.93,0,5.79,.12,8.56,.32,1.91,2.75,3.78,5.66,5.56,8.74,1.56,2.71,2.98,5.41,4.27,8.08-1.3,2.71-2.74,5.45-4.33,8.19-1.4,2.42-2.85,4.71-4.33,6.93-3.14,.26-6.39,.41-9.73,.41s-6.74-.15-9.95-.43c-1.46-2.18-2.89-4.45-4.26-6.83-1.58-2.74-3.01-5.47-4.31-8.17,1.31-2.72,2.74-5.47,4.33-8.22,1.77-3.07,3.63-5.96,5.53-8.69,2.81-.21,5.7-.33,8.66-.33Zm14.11,.86c3.55,.44,6.88,1.06,9.99,1.8-.92,3.02-2.06,6.17-3.43,9.43-.89-1.72-1.82-3.45-2.82-5.18-1.21-2.09-2.47-4.1-3.74-6.05Zm-28.46,.03c-1.25,1.92-2.48,3.88-3.66,5.93-1.01,1.75-1.95,3.5-2.86,5.24-1.36-3.23-2.49-6.37-3.4-9.37,3.08-.74,6.4-1.35,9.92-1.8Zm42.7,2.91c1.53,.46,3,.94,4.36,1.47,4.12,1.61,7.37,3.51,9.48,5.46,2.11,1.95,3.03,3.8,3.03,5.61s-.92,3.66-3.03,5.61c-2.11,1.95-5.37,3.85-9.48,5.46-1.5,.59-3.16,1.12-4.87,1.62-1.23-3.79-2.79-7.74-4.65-11.78,2.14-4.63,3.87-9.15,5.17-13.44Zm-56.8,.02c1.28,4.25,2.99,8.72,5.1,13.31-1.87,4.06-3.44,8.04-4.68,11.85-1.66-.49-3.25-1.01-4.71-1.58-4.12-1.61-7.37-3.51-9.48-5.46s-3.03-3.8-3.03-5.61,.92-3.66,3.03-5.61,5.37-3.85,9.48-5.46c1.33-.52,2.78-1,4.28-1.45Zm28.43,2.62c-5.92,0-10.77,4.85-10.77,10.77s4.85,10.77,10.77,10.77,10.77-4.85,10.77-10.77-4.85-10.77-10.77-10.77Zm0,4.31c3.6,0,6.46,2.87,6.46,6.46s-2.87,6.46-6.46,6.46-6.46-2.87-6.46-6.46,2.87-6.46,6.46-6.46Zm20.72,11.56c1.13,2.67,2.11,5.29,2.94,7.81-2.59,.6-5.35,1.11-8.25,1.51,.84-1.33,1.66-2.69,2.47-4.09,1.01-1.75,1.95-3.5,2.85-5.23Zm-41.53,0c.91,1.75,1.85,3.5,2.87,5.26,.8,1.38,1.61,2.72,2.43,4.04-2.89-.4-5.64-.91-8.23-1.51,.82-2.52,1.8-5.13,2.93-7.79Zm-4.17,11.98c3.9,.92,8.13,1.63,12.61,2.1,2.99,4.33,6.11,8.21,9.25,11.61-1.4,1.37-2.79,2.65-4.15,3.76-3.5,2.85-6.82,4.78-9.59,5.68-2.77,.9-4.83,.78-6.37-.11-1.54-.89-2.67-2.62-3.28-5.46-.61-2.85-.59-6.69,.13-11.14,.32-2.02,.81-4.19,1.41-6.43Zm49.89,.02c.61,2.26,1.1,4.43,1.42,6.47,.72,4.46,.73,8.31,.13,11.16s-1.75,4.6-3.3,5.49-3.63,1.02-6.41,.12c-2.78-.9-6.1-2.84-9.6-5.69-1.37-1.11-2.77-2.4-4.18-3.78,3.16-3.41,6.3-7.32,9.31-11.67,4.49-.46,8.73-1.16,12.64-2.09Zm-31.66,2.52c2.21,.12,4.45,.2,6.75,.2s4.39-.08,6.53-.19c-2.19,2.95-4.42,5.64-6.64,8.06-2.22-2.42-4.45-5.11-6.64-8.07Z"/></svg>