<?xml version="1.0" encoding="UTF-8"?><svg id="a" xmlns="http://www.w3.org/2000/svg" viewBox="0 0 100 100"><defs><style>.b{fill:#fff;}</style></defs><path class="b" d="M67.23,47.37c-.62,0-1.26,.14-1.93,.4-.67,.29-1.28,.78-1.83,1.45-.55,.69-1.02,1.64-1.4,2.83-.36,1.21-.55,2.76-.55,4.64,0,2.76,.48,4.92,1.4,6.47,.93,1.55,2.31,2.33,4.11,2.35,.57,0,1.12-.1,1.64-.26,.52-.17,1-.4,1.47-.67,.45-.31,.88-.62,1.24-.95,.33-.36,.64-.67,.9-1v-13.03c-.71-.64-1.47-1.17-2.33-1.62-.88-.43-1.78-.62-2.73-.62Z"/><path class="b" d="M87.86,0H12.14C5.43,0,0,5.43,0,12.14V87.86c0,6.7,5.43,12.14,12.14,12.14H87.86c6.7,0,12.14-5.43,12.14-12.14V12.14c0-6.7-5.43-12.14-12.14-12.14ZM46.06,70.16l-5.18-8.47c-1.26-2.07-2.45-4.04-3.52-5.9h-.1c-1.12,1.93-2.31,3.9-3.52,5.9l-5.18,8.47h-6.9l12.06-19.24-11.56-18.65h6.99l4.73,7.8c1.62,2.66,2.73,4.57,3.38,5.71h.12c.9-1.57,2.02-3.47,3.35-5.68l4.73-7.82h6.99l-11.56,18.65,12.06,19.24h-6.9Zm26.95,0l-.24-2.93h-.12c-.33,.48-.76,.93-1.24,1.38-.5,.45-1.02,.86-1.62,1.19-.59,.33-1.24,.57-1.95,.78-.69,.17-1.45,.26-2.28,.26-1.31,0-2.57-.26-3.78-.78-1.19-.52-2.26-1.33-3.21-2.45s-1.71-2.54-2.28-4.33c-.57-1.78-.86-3.88-.86-6.3s.29-4.54,.86-6.42c.59-1.88,1.38-3.45,2.38-4.73,1-1.26,2.14-2.21,3.45-2.85,1.28-.62,2.62-.95,4.02-.95,.64,0,1.26,.07,1.83,.19,.57,.14,1.12,.33,1.64,.55,.52,.24,.98,.48,1.43,.76s.88,.59,1.26,.88h.05c-.02-.38-.05-.9-.05-1.59v-13.65h5.87V62c0,1.81,.02,3.38,.05,4.69,.05,1.28,.07,2.45,.12,3.47h-5.33Z"/></svg>